# xmcd
#
# Track frame offsets:
#	150
#	24495
#	53562
#	77045
#	101132
#	128672
#	148552
#	176207
#	196212
#	221530
#	236375
#
# Disc length: 3607 seconds
#
# Revision: 1
# Processed by: cddbd v1.5.1PL0 Copyright (c) Steve Scherf et al.
# Submitted via: audiograbber 1.83.01
#
DISCID=910e150b
DTITLE=Jeff Healey - Feel Live
DYEAR=1993
DGENRE=Blues
TTITLE0=While My Guitar Gently Weeps
TTITLE1=Lost In Your Eyes
TTITLE2=Heart Of An Angel
TTITLE3=Evil And Here To Stay
TTITLE4=Angel Eyes
TTITLE5=Cruel Little Number
TTITLE6=See The Light
TTITLE7=Life Beyond The Sky
TTITLE8=I Think I Love You Too Much
TTITLE9=Confidence Man
TTITLE10=Blue Jean Blues
EXTD=
EXTT0=
EXTT1=
EXTT2=
EXTT3=
EXTT4=
EXTT5=
EXTT6=
EXTT7=
EXTT8=
EXTT9=
EXTT10=
PLAYORDER=
